# xmcd
#
# Track frame offsets:
#	150
#	16045
#	38103
#	52538
#	71178
#	93725
#	107918
#	121347
#	143656
#	172740
#	182675
#	201142
#	217152
#	236292
#	250715
#	265797
#
# Disc length: 3845 seconds
#
# Revision: 0
# Processed by: cddbd v1.5.2PL0 Copyright (c) Steve Scherf et al.
# Submitted via: EZCDAudioConverter 2.1.7.1
#
DISCID=d40f0310
DTITLE=V/A - Aloha Got Soul
DYEAR=1900
DGENRE=
TTITLE0=Tender Leaf - Countryside Beauty
TTITLE1=Aura - Yesterday's Love
TTITLE2=Aina - Your Light
TTITLE3=Lemuria - Get That Happy Feeling
TTITLE4=Roy and Roe - Just Don't Come Back
TTITLE5=Hawaii - Lady Of My Heart
TTITLE6=Hal Bradbury - Call Me
TTITLE7=Mike Lundy - Love One Another
TTITLE8=Nova - I Feel Like Getting Down
TTITLE9=Nohelani Cypriano - 'O' Kailua
TTITLE10=Brother Noland - Kawaihae
TTITLE11=Marvin Franklin with Kimo and The Guys - Kona Winds
TTITLE12=Greenwood - Sparkle
TTITLE13=Chucky Boy Chock and Mike Kaawa with Brown Co. -  Papa'a Tita
TTITLE14=Steve and Teresa - Kaho'olawe Song
TTITLE15=Rockwell Fukino - Coast To Coast
EXTD=
EXTT0=
EXTT1=
EXTT2=
EXTT3=
EXTT4=
EXTT5=
EXTT6=
EXTT7=
EXTT8=
EXTT9=
EXTT10=
EXTT11=
EXTT12=
EXTT13=
EXTT14=
EXTT15=
PLAYORDER=
